<svg width="256" height="256" viewBox="0 0 256 256" fill="none" xmlns="http://www.w3.org/2000/svg">
<path d="M29.97 55.4241C29.496 41.7941 40.114 29.2261 54.468 29.2261H201.548C215.902 29.2261 226.52 41.7941 226.046 55.4241C225.59 68.5161 226.182 85.4761 230.45 99.3041C234.732 113.176 241.952 121.942 253.778 123.07V135.844C241.952 136.972 234.732 145.738 230.45 159.61C226.182 173.438 225.59 190.398 226.046 203.49C226.52 217.12 215.902 229.686 201.548 229.686H54.468C40.114 229.686 29.496 217.118 29.97 203.49C30.426 190.398 29.834 173.438 25.564 159.61C21.284 145.74 14.044 136.972 2.21802 135.844V123.07C14.044 121.944 21.284 113.176 25.564 99.3041C29.834 85.4761 30.424 68.5161 29.97 55.4241Z" fill="url(#paint0_linear_201_67)"/>
<g filter="url(#filter0_d_201_67)">
<path d="M134.22 183.472C157.458 183.472 171.461 172.094 171.461 153.327C171.461 139.142 161.469 128.872 146.633 127.246V126.655C157.533 124.882 166.087 114.759 166.087 103.455C166.087 87.3481 153.37 76.856 133.993 76.856H90.3928V183.472H134.22ZM107.348 90.3771H129.905C142.168 90.3771 149.131 95.8445 149.131 105.745C149.131 116.311 141.032 122.221 126.348 122.221H107.348V90.3771ZM107.348 169.951V134.856H129.753C145.8 134.856 154.127 140.766 154.127 152.293C154.127 163.819 146.028 169.951 130.738 169.951H107.348Z" fill="url(#paint1_linear_201_67)"/>
</g>
<defs>
<filter id="filter0_d_201_67" x="86.4623" y="73.908" width="88.929" height="114.477" filterUnits="userSpaceOnUse" color-interpolation-filters="sRGB">
<feFlood flood-opacity="0" result="BackgroundImageFix"/>
<feColorMatrix in="SourceAlpha" type="matrix" values="0 0 0 0 0 0 0 0 0 0 0 0 0 0 0 0 0 0 127 0" result="hardAlpha"/>
<feOffset dy="0.98264"/>
<feGaussianBlur stdDeviation="1.96528"/>
<feColorMatrix type="matrix" values="0 0 0 0 0 0 0 0 0 0 0 0 0 0 0 0 0 0 0.15 0"/>
<feBlend mode="normal" in2="BackgroundImageFix" result="effect1_dropShadow_201_67"/>
<feBlend mode="normal" in="SourceGraphic" in2="effect1_dropShadow_201_67" result="shape"/>
</filter>
<linearGradient id="paint0_linear_201_67" x1="39.5992" y1="34.5313" x2="259.416" y2="209.025" gradientUnits="userSpaceOnUse">
<stop stop-color="#9013FE"/>
<stop offset="1" stop-color="#6610F2"/>
</linearGradient>
<linearGradient id="paint1_linear_201_67" x1="98.0633" y1="83.872" x2="147.195" y2="166.969" gradientUnits="userSpaceOnUse">
<stop stop-color="white"/>
<stop offset="1" stop-color="#F1E5FC"/>
</linearGradient>
</defs>
</svg>
