<svg width="254" height="254" viewBox="0 0 254 254" fill="none" xmlns="http://www.w3.org/2000/svg">
<path d="M220.98 32.7978C213.222 25.0402 203.888 21.1667 192.966 21.1667H60.8119C49.8899 21.1667 40.5554 25.0402 32.7978 32.7978C25.0402 40.5554 21.1667 49.8899 21.1667 60.8119V192.966C21.1667 203.888 25.0402 213.222 32.7978 220.98C40.5554 228.738 49.8899 232.611 60.8119 232.611H91.6517C93.6626 232.611 95.176 232.537 96.192 232.399C97.3741 232.162 98.441 231.532 99.2188 230.611C100.224 229.553 100.732 228.018 100.732 226.007L100.658 216.641C100.616 210.672 100.595 205.952 100.595 202.459L97.4197 203.01C95.4088 203.38 92.8688 203.539 89.7891 203.496C86.579 203.437 83.3792 203.115 80.2217 202.533C76.8605 201.913 73.6963 200.498 70.9931 198.406C68.162 196.264 66.0504 193.311 64.9394 189.939L63.5636 186.764C62.4039 184.26 60.9471 181.904 59.2244 179.747C57.2559 177.176 55.2557 175.44 53.2342 174.519L52.2817 173.831C51.6176 173.356 51.0134 172.801 50.4826 172.18C49.9756 171.604 49.5581 170.955 49.2443 170.254C48.9692 169.609 49.202 169.079 49.9322 168.667C50.6731 168.243 51.996 168.042 53.9327 168.042L56.6844 168.466C58.5153 168.825 60.7907 169.926 63.4895 171.757C66.2206 173.619 68.5021 176.067 70.1676 178.922C72.2842 182.679 74.8242 185.547 77.8087 187.526C80.7932 189.495 83.7989 190.489 86.8257 190.489C89.8526 190.489 92.4667 190.257 94.6786 189.802C96.8176 189.359 98.8961 188.663 100.87 187.727C101.695 181.589 103.939 176.848 107.611 173.546C102.853 173.079 98.1367 172.251 93.5038 171.069C88.9826 169.827 84.6343 168.024 80.5604 165.703C76.2979 163.383 72.533 160.247 69.4797 156.475C66.5481 152.802 64.1351 147.987 62.2512 142.028C60.378 136.059 59.4361 129.17 59.4361 121.37C59.4361 110.268 63.0556 100.817 70.3052 93.0064C66.9185 84.6667 67.236 75.3005 71.2682 64.9394C73.9352 64.1033 77.8828 64.7277 83.111 66.7915C88.3392 68.8552 92.1703 70.6227 94.6045 72.0832C97.0387 73.5648 98.986 74.8031 100.457 75.8085C109.061 73.4141 117.953 72.2105 126.884 72.2313C135.975 72.2313 144.78 73.4272 153.321 75.8085L158.549 72.5065C162.57 70.0919 166.812 68.0649 171.217 66.4528C176.086 64.6113 179.79 64.1139 182.372 64.9394C186.5 75.3111 186.859 84.6667 183.462 93.017C190.712 100.817 194.342 110.268 194.342 121.38C194.342 129.18 193.4 136.091 191.516 142.092C189.643 148.103 187.209 152.919 184.224 156.549C181.117 160.273 177.336 163.378 173.08 165.703C168.635 168.18 164.317 169.968 160.136 171.069C155.504 172.255 150.788 173.086 146.029 173.556C150.791 177.684 153.183 184.192 153.183 193.093V226.007C153.183 227.563 153.405 228.822 153.871 229.785C154.085 230.249 154.39 230.666 154.769 231.009C155.147 231.353 155.59 231.617 156.072 231.786C157.088 232.145 157.977 232.378 158.761 232.463C159.544 232.569 160.666 232.601 162.126 232.601H192.966C203.888 232.601 213.222 228.727 220.98 220.969C228.727 213.222 232.611 203.877 232.611 192.955V60.8119C232.611 49.8899 228.738 40.5554 220.98 32.7978Z" fill=""/>
</svg>
