<svg width="256" height="256" viewBox="0 0 256 256" fill="none" xmlns="http://www.w3.org/2000/svg">
<g clip-path="url(#clip0_201_4)">
<path d="M218.123 218.127H180.192V158.724C180.192 144.559 179.939 126.324 160.464 126.324C140.708 126.324 137.685 141.758 137.685 157.693V218.123H99.755V95.9669H136.168V112.661H136.678C140.322 106.43 145.588 101.304 151.915 97.829C158.242 94.3541 165.393 92.6603 172.606 92.9279C211.051 92.9279 218.139 118.216 218.139 151.114L218.123 218.127ZM56.955 79.2699C44.798 79.2719 34.941 69.4179 34.939 57.2609C34.937 45.1039 44.79 35.2469 56.947 35.2449C69.104 35.2419 78.961 45.0959 78.963 57.2529C78.9641 63.0909 76.646 68.6903 72.5187 72.8193C68.3915 76.9482 62.7931 79.2686 56.955 79.2699ZM75.921 218.128H37.95V95.9669H75.92V218.127L75.921 218.128ZM237.033 0.0178995H18.89C8.58002 -0.0981005 0.125023 8.1609 -0.000976562 18.4709V237.524C0.121023 247.839 8.57502 256.106 18.889 255.998H237.033C247.369 256.126 255.856 247.859 255.999 237.524V18.4539C255.852 8.1239 247.364 -0.134101 237.033 0.000899471" fill=""/>
</g>
<defs>
<clipPath id="clip0_201_4">
<rect width="256" height="256" fill="white"/>
</clipPath>
</defs>
</svg>
