<svg width="759" height="843" viewBox="0 0 759 843" fill="none" xmlns="http://www.w3.org/2000/svg">
<path d="M271.622 43.2624L407.607 43.2623L134.808 802.755L9.12212 802.755L271.622 43.2624Z" fill="#1E293B"/>
<path d="M420.107 43.2915L284.122 43.2914L556.921 802.784L682.607 802.784L420.107 43.2915Z" fill="#1E293B"/>
<rect x="280.122" y="44.0291" width="127.98" height="762" fill="#1E293B"/>
<path d="M404.122 44.0291C498.009 44.0291 588.05 84.17 654.438 155.621C720.826 227.073 758.122 323.982 758.122 425.029C758.122 526.077 720.826 622.985 654.438 694.437C588.05 765.888 498.009 806.029 404.122 806.029L404.122 657.439C461.393 657.438 516.318 632.953 556.814 589.367C597.311 545.782 620.062 486.668 620.062 425.029C620.062 363.39 597.311 304.276 556.814 260.691C516.318 217.106 461.393 192.62 404.122 192.62L404.122 44.0291Z" fill="#1E293B"/>
</svg>
