<svg width="256" height="256" viewBox="0 0 256 256" fill="none" xmlns="http://www.w3.org/2000/svg">
<path d="M0 128C0 165.186 57.308 195.334 128 195.334C198.692 195.334 256 165.186 256 128C256 90.814 198.69 60.666 128 60.666C57.308 60.666 0 90.814 0 128Z" fill="url(#paint0_radial_201_27)"/>
<path d="M128 190.334C195.93 190.334 251 162.424 251 128C251 93.572 195.93 65.666 128 65.666C60.07 65.666 5 93.572 5 128C5 162.424 60.07 190.334 128 190.334Z" fill="#777BB3"/>
<path d="M69.5441 135.728C75.1301 135.728 79.2981 134.698 81.9361 132.668C84.5481 130.656 86.3501 127.174 87.2961 122.318C88.1761 117.778 87.8401 114.61 86.2961 112.898C84.7201 111.15 81.3101 110.264 76.1621 110.264H67.2341L62.2881 135.728H69.5441ZM40.3461 167.094C40.1412 167.094 39.939 167.048 39.7539 166.96C39.5688 166.873 39.4053 166.745 39.2753 166.587C39.1453 166.428 39.052 166.243 39.002 166.045C38.952 165.846 38.9465 165.639 38.9861 165.438L52.1001 97.9618C52.1621 97.6464 52.3315 97.3622 52.5794 97.1576C52.8274 96.9531 53.1386 96.8408 53.4601 96.8398H81.7281C90.6121 96.8398 97.2241 99.2518 101.382 104.01C105.558 108.79 106.85 115.478 105.216 123.88C104.55 127.302 103.406 130.48 101.816 133.328C100.161 136.257 98.0491 138.904 95.5601 141.168C92.4981 144.032 89.0321 146.112 85.2661 147.334C81.5621 148.542 76.8021 149.154 71.1261 149.154H59.6781L56.4101 165.97C56.3484 166.286 56.1786 166.572 55.9297 166.777C55.6809 166.982 55.3685 167.094 55.0461 167.094H40.3461Z" fill="black"/>
<path d="M68.38 111.652H76.162C82.376 111.652 84.534 113.016 85.268 113.83C86.482 115.178 86.714 118.024 85.93 122.054C85.052 126.568 83.424 129.77 81.09 131.566C78.702 133.406 74.814 134.338 69.544 134.338H63.972L68.382 111.654L68.38 111.652ZM81.728 95.4522H53.462C52.8175 95.4523 52.1929 95.6763 51.6953 96.086C51.1977 96.4957 50.8579 97.0656 50.734 97.6982L37.62 165.176C37.5426 165.578 37.5549 165.992 37.656 166.389C37.7571 166.786 37.9445 167.155 38.2049 167.471C38.4654 167.787 38.7923 168.041 39.1624 168.216C39.5325 168.391 39.9367 168.482 40.346 168.482H55.046C55.6906 168.482 56.3149 168.257 56.8121 167.847C57.3094 167.437 57.6487 166.867 57.772 166.234L60.822 150.542H71.124C76.948 150.542 81.852 149.906 85.698 148.654C89.652 147.37 93.29 145.192 96.51 142.18C99.1027 139.819 101.303 137.059 103.028 134.006C104.69 131.032 105.886 127.712 106.578 124.144C108.298 115.298 106.9 108.216 102.426 103.096C97.994 98.0222 91.03 95.4502 81.728 95.4502V95.4522ZM60.602 137.114H69.544C75.47 137.114 79.884 136 82.784 133.764C85.686 131.532 87.64 127.804 88.66 122.582C89.63 117.566 89.188 114.028 87.33 111.966C85.468 109.906 81.748 108.874 76.162 108.874H66.09L60.602 137.114ZM81.73 98.2242C90.234 98.2242 96.436 100.458 100.336 104.92C104.236 109.384 105.408 115.614 103.856 123.612C103.212 126.908 102.13 129.92 100.606 132.648C99.078 135.38 97.086 137.876 94.624 140.142C91.688 142.888 88.43 144.846 84.84 146.012C81.252 147.18 76.68 147.762 71.126 147.762H58.534L55.048 165.702H40.348L53.464 98.2242H81.73Z" fill="white"/>
<path d="M138.918 149.154C138.713 149.154 138.511 149.109 138.325 149.022C138.14 148.934 137.976 148.807 137.846 148.649C137.715 148.491 137.621 148.306 137.571 148.107C137.521 147.908 137.515 147.701 137.554 147.5L143.354 117.644C143.908 114.804 143.772 112.768 142.974 111.904C142.484 111.378 141.016 110.496 136.674 110.496H126.162L118.87 148.032C118.808 148.348 118.637 148.632 118.388 148.837C118.139 149.041 117.826 149.152 117.504 149.152H102.924C102.719 149.152 102.517 149.107 102.332 149.02C102.146 148.933 101.983 148.806 101.852 148.648C101.721 148.49 101.627 148.305 101.577 148.107C101.526 147.908 101.52 147.701 101.558 147.5L114.674 80.0219C114.736 79.7058 114.906 79.4211 115.155 79.2164C115.404 79.0118 115.716 78.8999 116.038 78.8999H130.618C130.823 78.8998 131.025 78.9449 131.211 79.0321C131.396 79.1192 131.56 79.2463 131.69 79.4041C131.821 79.562 131.915 79.7467 131.966 79.9451C132.016 80.1436 132.023 80.3508 131.984 80.5519L128.82 96.8399H140.126C148.74 96.8399 154.58 98.3559 157.982 101.482C161.448 104.668 162.532 109.762 161.198 116.628L155.096 148.032C155.034 148.348 154.863 148.632 154.615 148.836C154.366 149.04 154.054 149.152 153.732 149.152H138.918V149.154Z" fill="black"/>
<path d="M130.62 77.5098H116.038C115.393 77.5099 114.768 77.7342 114.271 78.1443C113.773 78.5544 113.434 79.1248 113.31 79.7578L100.196 147.234C100.118 147.636 100.13 148.05 100.231 148.447C100.332 148.844 100.52 149.214 100.78 149.53C101.041 149.846 101.368 150.1 101.738 150.275C102.108 150.45 102.513 150.541 102.922 150.542H117.504C118.149 150.542 118.774 150.317 119.271 149.907C119.769 149.497 120.109 148.927 120.232 148.294L127.306 111.884H136.67C141.006 111.884 141.918 112.81 141.952 112.852C142.216 113.132 142.562 114.442 141.99 117.38L136.19 147.234C136.112 147.636 136.124 148.05 136.225 148.448C136.326 148.845 136.514 149.214 136.775 149.53C137.035 149.847 137.363 150.101 137.733 150.276C138.104 150.451 138.508 150.542 138.918 150.542H153.734C154.379 150.541 155.003 150.317 155.5 149.907C155.997 149.496 156.337 148.926 156.46 148.294L162.562 116.894C163.992 109.522 162.768 103.994 158.922 100.46C155.25 97.0878 149.102 95.4498 140.126 95.4498H130.506L133.348 80.8198C133.426 80.4174 133.414 80.0027 133.314 79.6054C133.213 79.2081 133.025 78.838 132.764 78.5217C132.504 78.2054 132.176 77.9506 131.806 77.7757C131.435 77.6007 131.03 77.5099 130.62 77.5098ZM130.62 80.2898L127.134 98.2258H140.126C148.3 98.2258 153.94 99.6538 157.04 102.506C160.146 105.358 161.074 109.976 159.836 116.366L153.732 147.764H138.918L144.72 117.908C145.38 114.512 145.136 112.196 143.99 110.96C142.844 109.726 140.404 109.108 136.674 109.108H125.016L117.504 147.762H102.92L116.036 80.2838H130.62V80.2898Z" fill="white"/>
<path d="M184.272 135.728C189.858 135.728 194.028 134.698 196.668 132.668C199.276 130.656 201.08 127.174 202.026 122.318C202.906 117.778 202.572 114.61 201.026 112.898C199.45 111.15 196.04 110.264 190.892 110.264H181.966L177.016 135.728H184.272ZM155.08 167.094C154.875 167.094 154.672 167.049 154.487 166.962C154.301 166.874 154.137 166.747 154.007 166.588C153.876 166.43 153.782 166.245 153.732 166.046C153.682 165.847 153.676 165.639 153.716 165.438L166.83 97.9618C166.892 97.6457 167.062 97.361 167.311 97.1564C167.56 96.9517 167.872 96.8398 168.194 96.8398H196.46C205.344 96.8398 211.956 99.2518 216.112 104.01C220.29 108.79 221.58 115.478 219.946 123.88C219.322 127.189 218.175 130.379 216.548 133.328C214.892 136.257 212.781 138.903 210.292 141.168C207.232 144.032 203.762 146.112 199.998 147.334C196.294 148.542 191.534 149.154 185.856 149.154H174.41L171.144 165.97C171.082 166.287 170.912 166.572 170.663 166.777C170.414 166.982 170.101 167.094 169.778 167.094H155.08Z" fill="black"/>
<path d="M183.11 111.652H190.892C197.106 111.652 199.264 113.016 199.996 113.83C201.216 115.178 201.444 118.024 200.662 122.054C199.782 126.568 198.154 129.77 195.82 131.566C193.43 133.406 189.542 134.338 184.274 134.338H178.702L183.11 111.652ZM196.458 95.4522H168.192C167.548 95.4527 166.924 95.677 166.426 96.0866C165.929 96.4963 165.59 97.0659 165.466 97.6982L152.35 165.176C152.273 165.578 152.285 165.993 152.386 166.389C152.487 166.786 152.675 167.156 152.936 167.472C153.196 167.787 153.523 168.042 153.894 168.216C154.264 168.391 154.669 168.482 155.078 168.482H169.778C170.423 168.482 171.047 168.257 171.544 167.847C172.041 167.437 172.381 166.867 172.504 166.234L175.554 150.542H185.854C191.676 150.542 196.582 149.906 200.426 148.654C204.382 147.37 208.02 145.192 211.242 142.178C213.834 139.817 216.033 137.059 217.758 134.006C219.422 131.032 220.614 127.712 221.308 124.144C223.028 115.298 221.632 108.216 217.156 103.096C212.724 98.0222 205.762 95.4502 196.456 95.4502L196.458 95.4522ZM175.332 137.114H184.272C190.2 137.114 194.612 136 197.516 133.764C200.416 131.532 202.372 127.804 203.388 122.582C204.362 117.566 203.92 114.028 202.058 111.966C200.198 109.906 196.476 108.874 190.892 108.874H180.822L175.332 137.114ZM196.458 98.2242C204.96 98.2242 211.166 100.458 215.064 104.92C218.964 109.384 220.138 115.614 218.582 123.612C217.942 126.908 216.858 129.92 215.334 132.648C213.808 135.38 211.814 137.876 209.35 140.142C206.416 142.888 203.156 144.846 199.566 146.012C195.98 147.18 191.41 147.762 185.854 147.762H173.264L169.774 165.702H155.074L168.19 98.2242H196.458Z" fill="white"/>
<defs>
<radialGradient id="paint0_radial_201_27" cx="0" cy="0" r="1" gradientUnits="userSpaceOnUse" gradientTransform="translate(76.852 84.338) scale(168.083 168.083)">
<stop stop-color="#AEB2D5"/>
<stop offset="0.3" stop-color="#AEB2D5"/>
<stop offset="0.75" stop-color="#484C89"/>
<stop offset="1" stop-color="#484C89"/>
</radialGradient>
</defs>
</svg>
