<svg width="256" height="256" viewBox="0 0 256 256" fill="none" xmlns="http://www.w3.org/2000/svg">
<path d="M128 147.792C139.046 147.792 148 138.838 148 127.792C148 116.746 139.046 107.792 128 107.792C116.954 107.792 108 116.746 108 127.792C108 138.838 116.954 147.792 128 147.792Z" fill="#00D8FF"/>
<path d="M128 173.648C103.961 174.23 79.9824 170.989 56.96 164.048C46.325 160.677 36.4059 155.366 27.704 148.384C24.3834 145.999 21.6182 142.924 19.5979 139.369C17.5777 135.815 16.3503 131.866 16 127.792C16 114.568 30.528 101.608 54.864 93.1282C78.5019 85.6142 103.199 81.9725 128 82.3442C152.47 82.0023 176.836 85.5782 200.176 92.9362C210.418 96.2014 220.001 101.256 228.48 107.864C231.744 110.138 234.468 113.102 236.458 116.546C238.449 119.99 239.658 123.829 240 127.792C240 141.536 223.76 155.464 197.6 164.12C175.023 170.835 151.551 174.048 128 173.648ZM128 91.9122C104.273 91.595 80.6466 95.057 58.008 102.168C35.608 109.984 25.568 120.672 25.568 127.768C25.568 135.192 36.36 146.864 60.056 154.968C82.0806 161.575 105.013 164.65 128 164.08C150.531 164.483 172.991 161.434 194.6 155.04C219.2 146.888 230.4 135.2 230.4 127.792C229.996 125.25 229.07 122.819 227.679 120.653C226.288 118.487 224.464 116.633 222.32 115.208C214.734 109.345 206.174 104.866 197.032 101.976C174.704 94.9662 151.4 91.5688 128 91.9122Z" fill="#00D8FF"/>
<path d="M82.5601 227.544C78.8281 227.629 75.1401 226.724 71.8721 224.92C60.4161 218.312 56.4481 199.256 61.2561 173.936C66.5572 149.705 75.7425 126.49 88.4561 105.192C100.382 83.8246 115.65 64.5031 133.68 47.9598C141.625 40.7174 150.791 34.9401 160.752 30.8958C164.355 29.2073 168.285 28.332 172.264 28.332C176.243 28.332 180.173 29.2073 183.776 30.8958C195.688 37.7598 199.632 58.7838 194.072 85.7678C188.607 108.684 179.661 130.627 167.544 150.832C156.038 171.947 141.251 191.1 123.736 207.576C115.502 215.102 105.947 221.039 95.5521 225.088C91.3906 226.632 86.9981 227.463 82.5601 227.544ZM96.7441 109.944C84.6168 130.338 75.8134 152.533 70.6641 175.696C66.2401 199.016 70.4881 213.04 76.6641 216.608C83.0641 220.312 98.6 216.8 117.464 200.32C134.184 184.535 148.298 166.201 159.28 146C170.888 126.684 179.47 105.705 184.728 83.7918C189.96 58.3918 185.44 42.8398 179.024 39.1438C176.619 38.2224 174.05 37.8099 171.477 37.9325C168.905 38.0551 166.386 38.7099 164.08 39.8558C155.213 43.5146 147.062 48.7088 140 55.1998C122.773 71.0461 108.19 89.5433 96.8001 109.992L96.7441 109.944Z" fill="#00D8FF"/>
<path d="M173.416 227.648C162.576 227.648 148.808 221.088 134.472 208.76C116.126 192.066 100.6 172.515 88.4961 150.864C75.942 129.859 66.8295 106.98 61.5041 83.0958C59.1946 72.5877 58.7666 61.7534 60.2401 51.0958C60.5808 47.1423 61.7846 43.3116 63.7668 39.8739C65.7489 36.4363 68.4611 33.4753 71.7121 31.1998C83.6081 24.3118 103.792 31.3918 124.392 49.6798C141.517 65.8573 156.059 84.5655 167.512 105.152C180.058 125.667 189.267 148.044 194.792 171.448C197.201 182.341 197.573 193.587 195.888 204.616C195.487 208.683 194.212 212.616 192.149 216.144C190.086 219.672 187.284 222.712 183.936 225.056C180.721 226.838 177.091 227.732 173.416 227.648ZM96.7761 146.048C108.388 166.739 123.218 185.451 140.712 201.48C158.704 216.96 172.976 220.288 179.112 216.68C185.512 212.96 190.232 197.776 185.368 173.208C180.039 150.863 171.207 129.503 159.2 109.92C148.271 90.2168 134.39 72.3027 118.04 56.7998C98.6481 39.5838 82.9201 35.7358 76.5121 39.4478C74.5149 41.0709 72.8759 43.0904 71.6986 45.3789C70.5213 47.6674 69.8312 50.1752 69.6721 52.7438C68.4002 62.2485 68.8145 71.9031 70.8961 81.2638C76.0185 104.105 84.7581 125.981 96.7841 146.064L96.7761 146.048Z" fill="#00D8FF"/>
</svg>
