<svg width="256" height="256" viewBox="0 0 256 256" fill="none" xmlns="http://www.w3.org/2000/svg">
<g clip-path="url(#clip0_201_62)">
<path d="M117.234 5.34419L5.35194 117.132C3.92167 118.558 2.78684 120.251 2.01251 122.116C1.23819 123.981 0.8396 125.981 0.8396 128C0.8396 130.02 1.23819 132.019 2.01251 133.884C2.78684 135.749 3.92167 137.443 5.35194 138.868L117.234 250.656C118.661 252.084 120.356 253.218 122.221 253.991C124.086 254.764 126.086 255.162 128.105 255.162C130.124 255.162 132.123 254.764 133.989 253.991C135.854 253.218 137.549 252.084 138.976 250.656L185.89 203.782C187.17 202.502 188.185 200.983 188.878 199.311C189.571 197.639 189.927 195.846 189.927 194.036C189.927 192.226 189.571 190.434 188.878 188.762C188.185 187.089 187.17 185.57 185.89 184.29C183.302 181.705 179.794 180.252 176.136 180.252C172.478 180.252 168.97 181.705 166.382 184.29L130.822 219.82C129.322 221.32 127.046 221.32 125.554 219.82L36.2039 130.554C34.7099 129.054 34.7099 126.782 36.2039 125.29L125.554 36.0162C127.046 34.5242 129.32 34.5242 130.82 36.0162L166.382 71.5462C168.97 74.1317 172.478 75.584 176.136 75.584C179.794 75.584 183.302 74.1317 185.89 71.5462C187.17 70.2664 188.185 68.747 188.878 67.0748C189.571 65.4025 189.927 63.6102 189.927 61.8002C189.927 59.9902 189.571 58.1978 188.878 56.5256C188.185 54.8534 187.17 53.334 185.89 52.0542L138.984 5.18819C132.944 -0.687811 123.226 -0.639812 117.234 5.34419Z" fill="url(#paint0_linear_201_62)"/>
<path d="M117.234 5.34419L5.35194 117.132C3.92167 118.558 2.78684 120.251 2.01251 122.116C1.23819 123.981 0.8396 125.981 0.8396 128C0.8396 130.02 1.23819 132.019 2.01251 133.884C2.78684 135.749 3.92167 137.443 5.35194 138.868L117.234 250.656C118.661 252.084 120.356 253.218 122.221 253.991C124.086 254.764 126.086 255.162 128.105 255.162C130.124 255.162 132.123 254.764 133.989 253.991C135.854 253.218 137.549 252.084 138.976 250.656L185.89 203.782C187.17 202.502 188.185 200.983 188.878 199.311C189.571 197.639 189.927 195.846 189.927 194.036C189.927 192.226 189.571 190.434 188.878 188.762C188.185 187.089 187.17 185.57 185.89 184.29C183.302 181.705 179.794 180.252 176.136 180.252C172.478 180.252 168.97 181.705 166.382 184.29L130.822 219.82C129.322 221.32 127.046 221.32 125.554 219.82L36.2039 130.554C34.7099 129.054 34.7099 126.782 36.2039 125.29L125.554 36.0162C129.282 32.8042 135.36 26.2962 144.296 24.7742C150.93 23.6402 158.188 26.1342 166.062 32.2422C160.796 26.9762 151.774 17.9622 138.984 5.18819C132.944 -0.687811 123.226 -0.639812 117.234 5.34419Z" fill="url(#paint1_linear_201_62)"/>
<path d="M196.72 173.89C199.308 176.475 202.816 177.927 206.473 177.927C210.131 177.927 213.639 176.475 216.226 173.89L250.828 139.32C252.258 137.896 253.393 136.203 254.167 134.338C254.941 132.474 255.34 130.476 255.34 128.457C255.34 126.439 254.941 124.44 254.167 122.576C253.393 120.712 252.258 119.019 250.828 117.594L215.922 82.8361C213.328 80.2538 209.815 78.8061 206.155 78.8106C202.495 78.8151 198.986 80.2714 196.398 82.8601C195.116 84.139 194.1 85.6581 193.406 87.3305C192.712 89.0028 192.355 90.7956 192.355 92.6061C192.355 94.4167 192.712 96.2095 193.406 97.8818C194.1 99.5542 195.116 101.073 196.398 102.352L219.978 125.906C220.331 126.247 220.612 126.655 220.804 127.107C220.996 127.559 221.095 128.044 221.095 128.535C221.095 129.026 220.996 129.512 220.804 129.963C220.612 130.415 220.331 130.823 219.978 131.164L196.718 154.406C195.437 155.684 194.42 157.203 193.726 158.874C193.033 160.546 192.676 162.338 192.676 164.148C192.676 165.958 193.033 167.75 193.726 169.422C194.42 171.094 195.439 172.612 196.72 173.89Z" fill="url(#paint2_linear_201_62)"/>
<path fill-rule="evenodd" clip-rule="evenodd" d="M158.876 128.562C158.876 111.89 145.352 98.374 128.664 98.374C111.984 98.374 98.4541 111.89 98.4541 128.562C98.4541 145.226 111.984 158.742 128.664 158.742C145.352 158.742 158.876 145.226 158.876 128.562Z" fill="url(#paint3_linear_201_62)"/>
</g>
<defs>
<linearGradient id="paint0_linear_201_62" x1="118.258" y1="0.812187" x2="224.614" y2="65.8157" gradientUnits="userSpaceOnUse">
<stop stop-color="#4285EB"/>
<stop offset="1" stop-color="#2EC7FF"/>
</linearGradient>
<linearGradient id="paint1_linear_201_62" x1="132.44" y1="0.81219" x2="79.9293" y2="272.324" gradientUnits="userSpaceOnUse">
<stop stop-color="#29CDFF"/>
<stop offset="0.379" stop-color="#148EFF"/>
<stop offset="1" stop-color="#0A60FF"/>
</linearGradient>
<linearGradient id="paint2_linear_201_62" x1="236.252" y1="65.9189" x2="167.893" y2="172.796" gradientUnits="userSpaceOnUse">
<stop stop-color="#FA816E"/>
<stop offset="0.415" stop-color="#F74A5C"/>
<stop offset="1" stop-color="#F51D2C"/>
</linearGradient>
<linearGradient id="paint3_linear_201_62" x1="139.601" y1="76.8249" x2="116.861" y2="167.748" gradientUnits="userSpaceOnUse">
<stop stop-color="#FA8E7D"/>
<stop offset="0.513" stop-color="#F74A5C"/>
<stop offset="1" stop-color="#F51D2C"/>
</linearGradient>
<clipPath id="clip0_201_62">
<rect width="256" height="256" fill="white"/>
</clipPath>
</defs>
</svg>
