<svg width="256" height="316" viewBox="0 0 256 316" fill="none" xmlns="http://www.w3.org/2000/svg">
<g clip-path="url(#clip0_201_53)">
<path d="M81.8339 315.107C61.6109 306.172 47.8699 286.924 46.0669 264.879C46.6514 253.704 49.8718 242.827 55.4649 233.135C61.058 223.444 68.865 215.213 78.2479 209.116C75.1259 216.73 75.8839 225.398 80.2179 232.363C82.6273 235.734 85.9659 238.331 89.8264 239.837C93.6869 241.343 97.9022 241.693 101.958 240.843C113.798 237.514 120.733 225.221 117.404 213.371C116.22 209.214 113.868 205.484 110.627 202.624C104.039 197.264 98.945 190.294 95.8388 182.389C92.7327 174.484 91.719 165.911 92.896 157.5C95.2023 148.406 100.222 140.229 107.288 134.056C101.968 148.241 116.971 162.238 127.038 169.124C144.904 179.845 162.114 191.624 178.575 204.398C196.572 218.583 206.383 240.786 204.847 263.501C200.798 287.674 183.697 307.631 160.391 315.117C207.014 304.745 255.084 267.707 256 215.175C255.084 173.143 229.995 135.425 191.647 118.246H189.943C190.796 120.307 191.199 122.527 191.125 124.757C191.253 123.315 191.253 121.865 191.125 120.423C191.332 122.124 191.332 123.844 191.125 125.545C188.209 137.494 176.152 144.852 164.174 141.936C159.387 140.754 155.112 138.066 152.038 134.184C136.671 114.484 152.038 92.064 154.609 70.392C155.389 56.7851 152.724 43.2012 146.862 30.8972C140.999 18.5931 132.129 7.96637 121.07 0C132.309 18.736 117.336 43.342 106.451 57.34C95.5469 71.337 79.7859 81.769 66.9409 93.983C53.1009 106.858 40.4139 121.013 29.0269 136.143C4.40995 166.217 -5.25305 205.885 2.75495 243.907C13.7389 280.551 44.1959 308.083 81.7559 315.225H81.9629L81.8339 315.107Z" fill="#DD4814"/>
</g>
<defs>
<clipPath id="clip0_201_53">
<rect width="256" height="316" fill="white"/>
</clipPath>
</defs>
</svg>
