<svg width="256" height="256" viewBox="0 0 256 256" fill="none" xmlns="http://www.w3.org/2000/svg">
<path d="M228.472 161.808C228.459 166.883 226.437 171.748 222.848 175.336C219.26 178.925 214.396 180.947 209.32 180.96H48.32C43.2444 180.947 38.3804 178.925 34.7915 175.336C31.2025 171.748 29.1806 166.883 29.168 161.808V100.8C29.1806 95.7244 31.2025 90.8604 34.7915 87.2714C38.3804 83.6825 43.2444 81.6606 48.32 81.6479H209.32C214.396 81.6606 219.26 83.6825 222.848 87.2714C226.437 90.8604 228.459 95.7244 228.472 100.8V161.808Z" fill="url(#paint0_linear_201_43)"/>
<path d="M194.792 130C198.301 130.715 201.462 132.602 203.756 135.351C206.05 138.1 207.341 141.548 207.416 145.128C207.498 147.276 207.067 149.412 206.159 151.36C205.25 153.308 203.89 155.011 202.192 156.328C197.879 159.468 192.625 161.046 187.296 160.8C180.993 160.729 174.816 159.026 169.368 155.856C169.48 154.011 169.913 152.2 170.648 150.504C171.288 148.808 172.237 147.246 173.448 145.896C177.474 148.23 181.994 149.581 186.64 149.84C188.057 149.922 189.468 149.612 190.72 148.944C191.153 148.711 191.514 148.364 191.764 147.941C192.015 147.519 192.146 147.036 192.144 146.544C192.144 144.662 190.688 143.251 187.776 142.312L182.552 140.336C174.648 137.456 170.696 132.758 170.696 126.24C170.605 124.097 171.007 121.961 171.871 119.997C172.735 118.033 174.038 116.293 175.68 114.912C179.391 111.634 184.153 109.795 189.104 109.728C192.205 109.769 195.292 110.163 198.304 110.904C201.203 111.814 203.976 113.082 206.56 114.68C206.646 116.659 206.291 118.632 205.52 120.456C204.947 122.201 203.893 123.748 202.48 124.92C198.342 122.841 193.823 121.627 189.2 121.352C188.164 121.28 187.137 121.581 186.304 122.2C185.985 122.461 185.73 122.791 185.558 123.165C185.386 123.54 185.302 123.948 185.312 124.36C185.312 125.864 186.515 127.054 188.92 127.928L194.808 130H194.792ZM152.8 130C156.307 130.716 159.467 132.604 161.759 135.353C164.052 138.102 165.341 141.549 165.416 145.128C165.498 147.275 165.068 149.411 164.161 151.358C163.254 153.306 161.896 155.01 160.2 156.328C155.886 159.467 150.633 161.044 145.304 160.8C139.001 160.729 132.825 159.025 127.376 155.856C127.487 154.011 127.921 152.2 128.656 150.504C129.294 148.807 130.244 147.245 131.456 145.896C135.482 148.23 140.002 149.581 144.648 149.84C146.065 149.923 147.476 149.613 148.728 148.944C149.16 148.71 149.521 148.363 149.771 147.941C150.022 147.518 150.154 147.036 150.152 146.544C150.152 144.662 148.696 143.251 145.784 142.312L140.56 140.336C132.656 137.456 128.704 132.758 128.704 126.24C128.612 124.096 129.014 121.96 129.878 119.996C130.742 118.032 132.046 116.293 133.688 114.912C137.396 111.635 142.156 109.795 147.104 109.728C150.205 109.768 153.292 110.163 156.304 110.904C159.203 111.814 161.976 113.082 164.56 114.68C164.646 116.659 164.291 118.632 163.52 120.456C162.947 122.201 161.893 123.748 160.48 124.92C156.339 122.84 151.818 121.626 147.192 121.352C146.156 121.28 145.129 121.581 144.296 122.2C143.978 122.461 143.723 122.791 143.551 123.166C143.379 123.54 143.295 123.948 143.304 124.36C143.304 125.864 144.507 127.054 146.912 127.928L152.8 130ZM122.112 130.664C122.14 127.936 121.674 125.226 120.736 122.664C119.878 120.314 118.537 118.169 116.8 116.368C115.035 114.576 112.919 113.168 110.584 112.232C108.041 110.862 105.251 110.008 102.376 109.72C99.0537 109.969 95.8288 110.956 92.936 112.608C90.3464 113.784 88.0713 115.554 86.296 117.776C84.4984 120.078 83.1742 122.712 82.4 125.528C81.5213 128.695 81.0904 131.97 81.12 135.256C81.0916 138.636 81.4404 142.009 82.16 145.312C82.772 148.199 83.985 150.925 85.72 153.312C87.4233 155.588 89.6744 157.396 92.264 158.568C95.3961 160.035 98.8135 160.792 102.272 160.784C108.914 160.886 115.419 158.893 120.864 155.088C120.547 151.861 119.188 148.826 116.992 146.44C114.76 147.304 112.469 148.004 110.136 148.536C108.413 148.927 106.654 149.139 104.888 149.168C103.698 149.285 102.496 149.137 101.369 148.736C100.242 148.335 99.2174 147.69 98.368 146.848C96.9398 145.116 96.1717 142.933 96.2 140.688H120.864C121.755 137.423 122.175 134.048 122.112 130.664ZM96.128 131.312C96.1355 128.552 96.73 125.825 97.872 123.312C98.3741 122.607 99.0491 122.042 99.8321 121.672C100.615 121.302 101.48 121.14 102.344 121.2C103.248 121.145 104.152 121.324 104.967 121.719C105.783 122.114 106.483 122.712 107 123.456C108.091 125.57 108.625 127.927 108.552 130.304V131.344H96.128V131.312Z" fill="#F6F6F6"/>
<path d="M233.44 137.6C232.03 138.869 230.918 140.435 230.185 142.184C229.451 143.934 229.115 145.825 229.2 147.72V164.128C229.379 166.493 228.974 168.866 228.022 171.038C227.069 173.21 225.597 175.114 223.736 176.584C219.905 179.418 215.27 180.957 210.504 180.976H207.52V172.752C209.325 172.324 210.974 171.398 212.28 170.08C213.402 169.002 214.281 167.698 214.859 166.253C215.437 164.809 215.7 163.258 215.632 161.704V148.448C215.354 144.799 216.064 141.143 217.688 137.864C220.148 134.722 223.491 132.387 227.288 131.16C222.735 129.398 218.972 126.048 216.696 121.728C215.717 118.725 215.35 115.556 215.616 112.408V100.264C215.797 97.1764 214.743 94.1434 212.688 91.8321C211.273 90.4624 209.456 89.582 207.504 89.3201V81.6401H214.928C217.979 81.8508 220.867 83.0985 223.112 85.1761C225.699 87.2447 227.58 90.065 228.496 93.2481C229.008 95.0691 229.24 96.9574 229.184 98.8481V112.904C229.057 114.924 229.347 116.948 230.035 118.852C230.723 120.755 231.795 122.496 233.184 123.968C235.13 125.763 237.47 127.075 240.016 127.8V134.152C237.587 134.744 235.337 135.913 233.456 137.56L233.44 137.6ZM44.752 81.6481H42.08C39.0281 81.8569 36.1397 83.1048 33.896 85.1841C31.1754 87.1266 29.2601 89.998 28.512 93.2561C28.2252 95.1081 28.1233 96.984 28.208 98.8561V112.912C28.281 114.961 27.9316 117.002 27.1815 118.91C26.4314 120.817 25.2967 122.55 23.848 124C21.5024 125.766 18.8375 127.062 16 127.816V134.16C18.7322 134.765 21.3109 135.925 23.576 137.568C25.0406 138.813 26.2133 140.365 27.011 142.114C27.8088 143.863 28.2119 145.766 28.192 147.688V164.096C27.947 166.432 28.2834 168.792 29.1711 170.967C30.0588 173.142 31.4703 175.063 33.28 176.56C37.1102 179.397 41.7455 180.939 46.512 180.96H49.88V172.752C47.9692 172.305 46.2009 171.386 44.736 170.08C43.6776 168.973 42.8658 167.654 42.3543 166.21C41.8427 164.767 41.6429 163.231 41.768 161.704V148.456C41.9399 144.771 41.0959 141.11 39.328 137.872C36.8685 134.73 33.5251 132.395 29.728 131.168C34.2798 129.407 38.0416 126.06 40.32 121.744C41.4508 118.773 41.9495 115.599 41.784 112.424V100.272C41.4987 97.2384 42.4086 94.2131 44.32 91.8401C45.6526 90.7516 47.2322 90.0071 48.92 89.6721H52.344V81.6481H44.752Z" fill="#F6F6F6" stroke="#404040" stroke-width="0.25" stroke-miterlimit="10"/>
<path d="M76.2961 148.232H73.7361C70.9521 148.232 69.9041 146.768 69.9041 143.824V89.7519C70.0567 87.2832 69.2933 84.8449 67.7601 82.9039C66.5601 81.5919 64.4721 81.6079 61.4961 81.6079H55.0321V146.456C54.769 149.991 55.7666 153.506 57.8481 156.376C59.0555 157.533 60.5002 158.414 62.082 158.956C63.6637 159.499 65.3446 159.692 67.0081 159.52C70.4121 159.481 73.8073 159.165 77.1601 158.576C77.4116 157.234 77.5082 155.868 77.4481 154.504C77.439 152.368 77.0544 150.251 76.3121 148.248L76.2961 148.232Z" fill="#F6F6F6"/>
<defs>
<linearGradient id="paint0_linear_201_43" x1="128.824" y1="81.6479" x2="128.824" y2="180.96" gradientUnits="userSpaceOnUse">
<stop offset="0.15" stop-color="#2A4F84"/>
<stop offset="0.388" stop-color="#294E82"/>
<stop offset="1" stop-color="#172E4E"/>
</linearGradient>
</defs>
</svg>
