<svg width="1500" height="1500" viewBox="0 0 1500 1500" fill="none" xmlns="http://www.w3.org/2000/svg">
<path d="M1500 750C1500 1164.21 1164.21 1500 750 1500C335.786 1500 0 1164.21 0 750C0 335.786 335.786 0 750 0C1164.21 0 1500 335.786 1500 750ZM35.0579 750C35.0579 1144.85 355.148 1464.94 750 1464.94C1144.85 1464.94 1464.94 1144.85 1464.94 750C1464.94 355.148 1144.85 35.0579 750 35.0579C355.148 35.0579 35.0579 355.148 35.0579 750Z" fill=""/>
<path d="M618.759 370.444L754.809 370.262L480.868 1132.94L355.122 1133.1L618.759 370.444Z" fill=""/>
<path d="M987.967 991.314L864.675 1026.65L917 1133.13L1028.61 1133.13L987.967 991.314Z" fill=""/>
<rect x="688" y="370.347" width="127.98" height="762" fill=""/>
<path d="M812 370.347C905.887 370.347 995.928 410.488 1062.32 481.939C1128.7 553.391 1166 650.299 1166 751.347C1166 852.394 1128.7 949.303 1062.32 1020.75C995.928 1092.21 905.887 1132.35 812 1132.35L812 983.756C869.271 983.756 924.196 959.27 964.692 915.685C1005.19 872.1 1027.94 812.986 1027.94 751.347C1027.94 689.708 1005.19 630.594 964.692 587.009C924.196 543.423 869.271 518.937 812 518.937L812 370.347Z" fill=""/>
<rect x="560" y="751.347" width="127.98" height="138" fill=""/>
</svg>
