<svg width="256" height="256" viewBox="0 0 256 256" fill="none" xmlns="http://www.w3.org/2000/svg">
<path d="M27.7333 112.96L89.3867 51.2002L107.413 69.3336C104.853 78.4002 109.013 88.3202 117.333 93.1202V152.214C110.933 155.84 106.667 162.774 106.667 170.667C106.667 176.325 108.914 181.751 112.915 185.752C116.916 189.753 122.342 192 128 192C133.658 192 139.084 189.753 143.085 185.752C147.086 181.751 149.333 176.325 149.333 170.667C149.333 162.774 145.067 155.84 138.667 152.214V100.374L160.747 122.667C160 124.267 160 126.08 160 128C160 133.658 162.248 139.084 166.248 143.085C170.249 147.086 175.675 149.334 181.333 149.334C186.991 149.334 192.418 147.086 196.418 143.085C200.419 139.084 202.667 133.658 202.667 128C202.667 122.342 200.419 116.916 196.418 112.915C192.418 108.915 186.991 106.667 181.333 106.667C179.413 106.667 177.6 106.667 176 107.414L148.587 80.0002C149.911 75.0598 149.398 69.8066 147.142 65.2162C144.886 60.6257 141.04 57.0099 136.32 55.0402C131.733 53.3336 126.933 52.9069 122.667 54.0802L104.533 36.0536L112.96 27.7336C121.28 19.3069 134.72 19.3069 143.04 27.7336L228.267 112.96C236.693 121.28 236.693 134.72 228.267 143.04L143.04 228.267C134.72 236.694 121.28 236.694 112.96 228.267L27.7333 143.04C19.3067 134.72 19.3067 121.28 27.7333 112.96Z" fill="black"/>
</svg>
